<?xml version="1.0" standalone="no"?>
<!DOCTYPE svg PUBLIC "-//W3C//DTD SVG 20010904//EN"
 "http://www.w3.org/TR/2001/REC-SVG-20010904/DTD/svg10.dtd">
<svg version="1.0" xmlns="http://www.w3.org/2000/svg"
 width="373.000000pt" height="372.000000pt" viewBox="0 0 373.000000 372.000000"
 preserveAspectRatio="xMidYMid meet">

<g transform="translate(0.000000,372.000000) scale(0.100000,-0.100000)"
fill="#000000" stroke="none">
<path d="M1034 3286 c-588 -286 -890 -438 -892 -449 -3 -12 62 -49 273 -154
l276 -138 292 148 292 149 611 -301 612 -301 311 147 c264 124 311 150 309
166 -2 15 -143 92 -578 317 -318 165 -576 304 -578 312 -4 21 1 24 218 138
221 116 231 123 210 144 -13 12 -305 173 -426 234 l-41 21 -889 -433z"/>
<path d="M7 2723 c-4 -3 -7 -417 -7 -920 l0 -913 251 -126 c146 -72 258 -123
267 -119 13 5 14 41 9 300 -5 248 -3 296 9 306 11 9 70 -18 304 -145 159 -86
296 -156 306 -156 15 0 16 -27 13 -312 l-4 -313 130 -65 c289 -145 504 -242
519 -237 15 6 16 96 14 938 l-3 932 -889 418 c-488 231 -894 419 -900 419 -7
0 -16 -3 -19 -7z m849 -975 l304 -162 0 -163 0 -162 -102 54 c-57 30 -200 106
-318 169 l-215 114 -7 138 c-7 150 -5 174 19 174 9 0 152 -73 319 -162z"/>
<path d="M2815 2280 l-860 -408 -3 -926 c-2 -863 -1 -926 15 -926 9 0 407 185
885 412 l868 411 0 389 0 388 -40 96 c-22 53 -40 104 -40 114 0 9 18 113 40
230 39 205 40 220 40 421 l0 209 -22 -1 c-13 0 -410 -184 -883 -409z m373
-322 c13 -13 17 -209 6 -264 -6 -30 -50 -56 -636 -367 l-128 -68 2 178 3 177
365 177 c201 98 367 178 371 178 3 1 10 -4 17 -11z m-9 -525 c5 -10 12 -119
16 -243 5 -181 4 -228 -7 -242 -7 -10 -174 -90 -371 -178 -288 -129 -362 -159
-373 -149 -12 10 -14 51 -12 231 l3 219 360 189 c198 104 363 189 367 189 4 1
11 -7 17 -16z"/>
</g>
</svg>
